<?xml version="1.0" encoding="UTF-8"?>
<svg xmlns="http://www.w3.org/2000/svg" xmlns:xlink="http://www.w3.org/1999/xlink" width="35px" height="35px" viewBox="0 0 35 35" version="1.1">
<g id="surface1">
<path style=" stroke:none;fill-rule:nonzero;fill:rgb(0%,0%,0%);fill-opacity:1;" d="M 27.414062 9.769531 L 23.203125 13.980469 L 23.214844 14.019531 L 26.414062 25.789062 C 26.523438 26.3125 26.378906 26.855469 26.023438 27.253906 L 24.96875 28.308594 C 24.828125 28.46875 24.617188 28.550781 24.40625 28.519531 C 24.195312 28.488281 24.011719 28.355469 23.925781 28.160156 L 19.601562 20.332031 L 18.226562 18.957031 L 14.597656 22.585938 C 14.183594 22.957031 13.71875 23.269531 13.214844 23.515625 L 14.027344 26.179688 C 14.152344 26.695312 14.015625 27.238281 13.660156 27.636719 L 13.339844 27.957031 C 12.996094 28.300781 12.441406 28.300781 12.101562 27.957031 L 10.183594 26.042969 L 10.152344 26.007812 L 8.699219 24.558594 L 6.75 22.609375 C 6.410156 22.265625 6.410156 21.714844 6.75 21.371094 L 7.074219 21.046875 C 7.472656 20.695312 8.015625 20.558594 8.53125 20.683594 L 11.195312 21.492188 C 11.441406 20.992188 11.753906 20.527344 12.125 20.109375 L 15.753906 16.480469 L 14.378906 15.109375 L 6.550781 10.785156 C 6.355469 10.695312 6.222656 10.515625 6.191406 10.304688 C 6.160156 10.09375 6.242188 9.882812 6.402344 9.742188 L 7.457031 8.6875 C 7.855469 8.332031 8.398438 8.1875 8.921875 8.300781 L 20.691406 11.496094 L 20.730469 11.507812 L 24.941406 7.296875 C 25.621094 6.613281 27.925781 5.417969 28.609375 6.097656 C 29.292969 6.785156 28.097656 9.085938 27.414062 9.769531 Z M 27.414062 9.769531 "/>
</g>
</svg>
